# xmcd
#
# Track frame offsets:
# 182
# 17705
# 33907
# 53847
# 68852
# 86230
# 102912
# 118390
# 131262
# 143627
# 160310
# 174912
# 187302
# 200680
# 212765
# 225290
#
# Disc length: 3181 seconds
#
#
# Revision: 3
# Processed by: cddbd v1.5.2PL0 Copyright (c) Steve Scherf et al.
# Submitted via: FreeRIP 2.951 
#
DISCID=e10c6b10,e60c6b10
DTITLE=Dolly Parton - The Collection
DYEAR=1900
DGENRE=Country
TTITLE0=Save the last dance for me -1983
TTITLE1=I walk the line -1983
TTITLE2=Turn, turn, turn (To Everything there is a season) (Words from the book of ecclesiates) -1983
TTITLE3=Downtown -1983
TTITLE4=We had it all -1983
TTITLE5=She don't love you -1983
TTITLE6=We'll sing in the sunshine -1983
TTITLE7=I can't help myself -1983
TTITLE8=Elusive butterfly -1983
TTITLE9=The great pretender -1983
TTITLE10=Harper valley PTA -1968
TTITLE11=D.I.V.O. R.C.E. -1968
TTITLE12=I will always love you -1974
TTITLE13=Jolene -1974
TTITLE14=9 to 5 -1980
TTITLE15=Here you come again -1977
EXTD=
EXTT0=
EXTT1=
EXTT2=
EXTT3=
EXTT4=
EXTT5=
EXTT6=
EXTT7=
EXTT8=
EXTT9=
EXTT10=
EXTT11=
EXTT12=
EXTT13=
EXTT14=
EXTT15=
PLAYORDER=
